# xmcd CD database file
#
# Track frame offsets:
#	150
#	20220
#	40320
#	60392
#
# Disc length: 1070 seconds
#
# Revision: 0
# Processed by: cddbd v1.5.1PL0 Copyright (c) Steve Scherf et al.
# Submitted via: CDex 1.51
#
DISCID=2f042c04
DTITLE=飯塚雅弓 - amulet
DYEAR=2004
DGENRE=Vocal
TTITLE0=amulet
TTITLE1=Happy go! let's go!
TTITLE2=amulet（オリジナルカラオケ）
TTITLE3=Happy go! let's go!（オリジナルカラオケ）
EXTD=YEAR: 2004
EXTT0=
EXTT1=
EXTT2=
EXTT3=
PLAYORDER=
